<svg xmlns="http://www.w3.org/2000/svg" width="1240.747" height="789.496" viewBox="0 0 1240.747 789.496">
  <g id="Group_747" data-name="Group 747" transform="translate(-47.134 106.93)">
    <g id="Group_746" data-name="Group 746" transform="translate(1040.441 739.245)" opacity="0.07">
      <path id="Path_181" data-name="Path 181" d="M41.558-56.68,0-80.674V-128.66l41.558-23.994L83.116-128.66v47.987Zm0-6.429L5.568-83.888v-41.558l35.99-20.779,35.99,20.779v41.558Z" transform="translate(0 0)" fill="#fdcf37" fill-rule="evenodd"/>
    </g>
    <g id="Group_745" data-name="Group 745" transform="translate(980.341 668.406)" opacity="0.07">
      <path id="Path_181-2" data-name="Path 181" d="M22.759-100.093,0-113.233v-26.28l22.759-13.14,22.759,13.14v26.28Zm0-3.521-19.71-11.38v-22.759l19.71-11.38,19.71,11.38v22.759Z" fill="#fdcf37" fill-rule="evenodd"/>
    </g>
    <g id="Group_744" data-name="Group 744" transform="translate(1134.739 581.99)" opacity="0.07">
      <path id="Path_181-3" data-name="Path 181" d="M14.5-119.168,0-127.539v-16.743l14.5-8.372L29-144.282v16.743Zm0-2.243-12.557-7.25v-14.5l12.557-7.25,12.557,7.25v14.5Z" fill="#fdcf37" fill-rule="evenodd"/>
    </g>
    <g id="Group_743" data-name="Group 743" transform="translate(1138.821 486.982)" opacity="0.07">
      <path id="Path_181-4" data-name="Path 181" d="M19.8-106.925,0-118.357v-22.864l19.8-11.432,19.8,11.432v22.864Zm0-3.063-17.148-9.9v-19.8l17.148-9.9,17.148,9.9v19.8Z" fill="#fdcf37" fill-rule="evenodd"/>
    </g>
    <g id="Group_742" data-name="Group 742" transform="translate(881.831 338.808)" opacity="0.07">
      <path id="Path_181-5" data-name="Path 181" d="M32.339-77.97,0-96.641v-37.342l32.339-18.671,32.339,18.671v37.342Zm0-5L4.333-99.142v-32.339l28.006-16.17,28.006,16.17v32.339Z" fill="#fdcf37" fill-rule="evenodd"/>
    </g>
    <g id="Group_741" data-name="Group 741" transform="translate(1119.187 224.394)" opacity="0.07">
      <path id="Path_181-6" data-name="Path 181" d="M24.756-95.483,0-109.775v-28.586l24.756-14.293,24.756,14.293v28.586Zm0-3.83L3.317-111.69v-24.756l21.439-12.378L46.2-136.446v24.756Z" transform="translate(0 0)" fill="#fdcf37" fill-rule="evenodd"/>
    </g>
    <g id="Group_740" data-name="Group 740" transform="translate(1201.688 191.136)" opacity="0.07">
      <path id="Path_181-7" data-name="Path 181" d="M43.1-53.126,0-78.008v-49.764l43.1-24.882,43.1,24.882v49.764Zm0-6.667L5.774-81.342v-43.1L43.1-145.987,80.42-124.438v43.1Z" fill="#fdcf37" fill-rule="evenodd"/>
    </g>
    <g id="Group_738" data-name="Group 738" transform="translate(482.897 749.185)" opacity="0.07">
      <path id="Path_181-8" data-name="Path 181" d="M16.159-115.335,0-124.665v-18.659l16.159-9.33,16.159,9.33v18.659Zm0-2.5-13.995-8.08v-16.159l13.995-8.08,13.995,8.08v16.159Z" fill="#fdcf37" fill-rule="evenodd"/>
    </g>
    <g id="Group_737" data-name="Group 737" transform="translate(781.623 617.355)" opacity="0.07">
      <path id="Path_181-9" data-name="Path 181" d="M20.456-105.413,0-117.223v-23.62l20.456-11.81,20.456,11.81v23.62Zm0-3.165L2.741-118.805v-20.456l17.715-10.228,17.715,10.228v20.456Z" transform="translate(0 0)" fill="#fdcf37" fill-rule="evenodd"/>
    </g>
    <g id="Group_736" data-name="Group 736" transform="translate(720.24 499.299)" opacity="0.07">
      <path id="Path_181-10" data-name="Path 181" d="M34.15-73.787,0-93.5v-39.433l34.15-19.717L68.3-132.937V-93.5Zm0-5.283L4.575-96.145V-130.3L34.15-147.371,63.726-130.3v34.15Z" transform="translate(0 0)" fill="#fdcf37" fill-rule="evenodd"/>
    </g>
    <g id="Group_735" data-name="Group 735" transform="translate(473.631 396.268)" opacity="0.07">
      <path id="Path_181-11" data-name="Path 181" d="M35.233-71.286,0-91.628v-40.684l35.233-20.342,35.233,20.342v40.684Zm0-5.451L4.72-94.353v-35.233L35.233-147.2l30.513,17.617v35.233Z" fill="#fdcf37" fill-rule="evenodd"/>
    </g>
    <g id="Group_734" data-name="Group 734" transform="translate(821.257 392.02)" opacity="0.07">
      <path id="Path_181-12" data-name="Path 181" d="M25.09-94.71,0-109.2v-28.972l25.09-14.486,25.09,14.486V-109.2Zm0-3.882L3.361-111.137v-25.09L25.09-148.772l21.729,12.545v25.09Z" fill="#fdcf37" fill-rule="evenodd"/>
    </g>
    <g id="Group_733" data-name="Group 733" transform="translate(527.921 247.686)" opacity="0.07">
      <path id="Path_181-13" data-name="Path 181" d="M30.35-82.564,0-100.086v-35.045l30.35-17.523L60.7-135.131v35.045Zm0-4.7L4.066-102.434v-30.35L30.35-147.959l26.284,15.175v30.35Z" fill="#fdcf37" fill-rule="evenodd"/>
    </g>
    <g id="Group_732" data-name="Group 732" transform="translate(562.649 112.759)" opacity="0.07">
      <path id="Path_181-14" data-name="Path 181" d="M30.957-81.163,0-99.035v-35.745l30.957-17.873,30.957,17.873v35.745Zm0-4.789L4.147-101.43v-30.956l26.809-15.479,26.809,15.479v30.956Z" fill="#fdcf37" fill-rule="evenodd"/>
    </g>
    <g id="Group_730" data-name="Group 730" transform="translate(47.134 756.023)" opacity="0.07">
      <path id="Path_181-15" data-name="Path 181" d="M17.9-111.324,0-121.657v-20.665l17.9-10.333,17.9,10.333v20.665Zm0-2.769L2.4-123.041v-17.9l15.5-8.948,15.5,8.948v17.9Z" fill="#fdcf37" fill-rule="evenodd"/>
    </g>
    <g id="Group_729" data-name="Group 729" transform="translate(83.461 657.124)" opacity="0.07">
      <path id="Path_181-16" data-name="Path 181" d="M35.185-71.4,0-91.712V-132.34l35.185-20.314L70.37-132.34v40.628Zm0-5.443L4.714-94.434v-35.185l30.471-17.593,30.471,17.593v35.185Z" fill="#fdcf37" fill-rule="evenodd"/>
    </g>
    <g id="Group_728" data-name="Group 728" transform="translate(201.643 544.607)" opacity="0.07">
      <path id="Path_181-17" data-name="Path 181" d="M41.486-56.846,0-80.8v-47.9l41.486-23.952L82.972-128.7v47.9Zm0-6.418L5.558-84.007v-41.486l35.928-20.743,35.928,20.743v41.486Z" fill="#fdcf37" fill-rule="evenodd"/>
    </g>
    <g id="Group_727" data-name="Group 727" transform="translate(180.485 435.262)" opacity="0.07">
      <path id="Path_181-18" data-name="Path 181" d="M17.545-112.136,0-122.266v-20.259l17.545-10.13,17.545,10.13v20.259Zm0-2.714L2.351-123.623v-17.545l15.194-8.772,15.194,8.772v17.545Z" fill="#fdcf37" fill-rule="evenodd"/>
    </g>
    <g id="Group_726" data-name="Group 726" transform="translate(161.279 395.126)" opacity="0.07">
      <path id="Path_181-19" data-name="Path 181" d="M11.583-125.9,0-132.591v-13.375l11.583-6.688,11.583,6.688v13.375Zm0-1.792L1.552-133.487V-145.07l10.031-5.792,10.031,5.792v11.583Z" fill="#fdcf37" fill-rule="evenodd"/>
    </g>
    <g id="Group_725" data-name="Group 725" transform="translate(205.069 278.727)" opacity="0.07">
      <path id="Path_181-20" data-name="Path 181" d="M8.99-131.892,0-137.083v-10.381l8.99-5.19,8.99,5.19v10.381Zm0-1.391-7.786-4.5v-8.99l7.786-4.5,7.786,4.5v8.99Z" fill="#fdcf37" fill-rule="evenodd"/>
    </g>
    <g id="Group_724" data-name="Group 724" transform="translate(202.724 166.803)" opacity="0.07">
      <path id="Path_181-21" data-name="Path 181" d="M23.335-98.763,0-112.236v-26.945l23.335-13.473,23.335,13.473v26.945Zm0-3.61L3.126-114.041v-23.335l20.209-11.668,20.209,11.668v23.335Z" transform="translate(0 0)" fill="#fdcf37" fill-rule="evenodd"/>
    </g>
    <g id="Group_739" data-name="Group 739" transform="translate(993.811 45.724)" opacity="0.07">
      <path id="Path_181-22" data-name="Path 181" d="M33.836-74.513,0-94.048v-39.07l33.836-19.536,33.836,19.536v39.07Zm0-5.234L4.533-96.665V-130.5l29.3-16.918,29.3,16.918v33.836Z" fill="#fdcf37" fill-rule="evenodd"/>
    </g>
    <g id="Group_731" data-name="Group 731" transform="translate(848.207 90.895)" opacity="0.07">
      <path id="Path_181-23" data-name="Path 181" d="M26.866-90.61,0-106.121v-31.022l26.866-15.511,26.866,15.511v31.022Zm0-4.156L3.6-108.2v-26.866L26.866-148.5l23.266,13.433V-108.2Z" transform="translate(0 0)" fill="#fdcf37" fill-rule="evenodd"/>
    </g>
    <g id="Group_723" data-name="Group 723" transform="translate(336.411 95.506)" opacity="0.07">
      <path id="Path_181-24" data-name="Path 181" d="M9.087-131.668,0-136.914v-10.493l9.087-5.247,9.087,5.247v10.493Zm0-1.406-7.87-4.544V-146.7l7.87-4.544,7.87,4.544v9.087Z" fill="#fdcf37" fill-rule="evenodd"/>
    </g>
  </g>
</svg>
