<svg xmlns="http://www.w3.org/2000/svg" width="1119.888" height="744.955" viewBox="0 0 1119.888 744.955">
  <g id="Group_748" data-name="Group 748" transform="translate(-95.165 96.799)">
    <g id="Group_747" data-name="Group 747" transform="translate(1204.952 763.894)" opacity="0.851">
      <path id="Path_181" data-name="Path 181" d="M5.051-140.99,0-143.906v-5.832l5.051-2.916,5.051,2.916v5.832Zm0-.781L.677-144.3v-5.051l4.374-2.525,4.374,2.525v5.051Z" fill="#fdcf37" fill-rule="evenodd"/>
    </g>
    <g id="Group_746" data-name="Group 746" transform="translate(1146.3 584.613)" opacity="0.343">
      <path id="Path_181-2" data-name="Path 181" d="M9.38-130.992,0-136.407v-10.831l9.38-5.416,9.38,5.416v10.831Zm0-1.451-8.123-4.69v-9.38L9.38-151.2l8.123,4.69v9.38Z" fill="#fdcf37" fill-rule="evenodd"/>
    </g>
    <g id="Group_745" data-name="Group 745" transform="translate(1047.521 444.075)" opacity="0.237">
      <path id="Path_181-3" data-name="Path 181" d="M7.45-135.449,0-139.75v-8.6l7.45-4.3,7.45,4.3v8.6Zm0-1.153L1-140.326v-7.45L7.45-151.5l6.452,3.725v7.45Z" fill="#fdcf37" fill-rule="evenodd"/>
    </g>
    <g id="Group_744" data-name="Group 744" transform="translate(1171.801 305.326)" opacity="0.277">
      <path id="Path_181-4" data-name="Path 181" d="M7.576-135.158,0-139.532v-8.748l7.576-4.374,7.576,4.374v8.748Zm0-1.172-6.561-3.788v-7.576l6.561-3.788,6.561,3.788v7.576Z" fill="#fdcf37" fill-rule="evenodd"/>
    </g>
    <g id="Group_742" data-name="Group 742" transform="translate(973.715 727.53)" opacity="0.398">
      <path id="Path_181-5" data-name="Path 181" d="M9.064-131.721,0-136.954v-10.467l9.064-5.233,9.064,5.233v10.467Zm0-1.4-7.85-4.532v-9.064l7.85-4.532,7.85,4.532v9.064Z" fill="#fdcf37" fill-rule="evenodd"/>
    </g>
    <g id="Group_741" data-name="Group 741" transform="translate(834.575 606.046)" opacity="0.27">
      <path id="Path_181-6" data-name="Path 181" d="M6.964-136.572,0-140.593v-8.041l6.964-4.02,6.964,4.02v8.041Zm0-1.077L.933-141.131v-6.964l6.031-3.482,6.031,3.482v6.964Z" fill="#fdcf37" fill-rule="evenodd"/>
    </g>
    <g id="Group_740" data-name="Group 740" transform="translate(805.681 430.76)" opacity="0.702">
      <path id="Path_181-7" data-name="Path 181" d="M9.248-131.3,0-136.636v-10.679l9.248-5.34,9.248,5.34v10.679Zm0-1.431-8.009-4.624V-146.6l8.009-4.624,8.009,4.624v9.248Z" transform="translate(0 0)" fill="#fdcf37" fill-rule="evenodd"/>
    </g>
    <g id="Group_739" data-name="Group 739" transform="translate(864.798 243.294)" opacity="0.628">
      <path id="Path_181-8" data-name="Path 181" d="M8.6-132.782,0-137.75v-9.936l8.6-4.968,8.6,4.968v9.936Zm0-1.331-7.452-4.3v-8.6l7.452-4.3,7.452,4.3v8.6Z" fill="#fdcf37" fill-rule="evenodd"/>
    </g>
    <g id="Group_737" data-name="Group 737" transform="translate(619.04 738.282)" opacity="0.816">
      <path id="Path_181-9" data-name="Path 181" d="M6.323-138.052,0-141.7V-149l6.323-3.65L12.645-149v7.3Zm0-.978L.847-142.192v-6.323l5.476-3.161,5.476,3.161v6.323Z" fill="#fdcf37" fill-rule="evenodd"/>
    </g>
    <g id="Group_736" data-name="Group 736" transform="translate(716.82 628.455)" opacity="0.286">
      <path id="Path_181-10" data-name="Path 181" d="M5.944-138.927,0-142.358v-6.864l5.944-3.432,5.944,3.432v6.864Zm0-.92L.8-142.818v-5.944l5.148-2.972,5.148,2.972v5.944Z" fill="#fdcf37" fill-rule="evenodd"/>
    </g>
    <g id="Group_735" data-name="Group 735" transform="translate(525.632 399.423)" opacity="0.211">
      <path id="Path_181-11" data-name="Path 181" d="M8.858-132.2,0-137.312V-147.54l8.858-5.114,8.858,5.114v10.228Zm0-1.37L1.187-138v-8.858l7.671-4.429,7.671,4.429V-138Z" fill="#fdcf37" fill-rule="evenodd"/>
    </g>
    <g id="Group_734" data-name="Group 734" transform="translate(674.951 217.786)" opacity="0.445">
      <path id="Path_181-12" data-name="Path 181" d="M6.2-138.325,0-141.907v-7.165l6.2-3.582,6.2,3.582v7.165Zm0-.96-5.373-3.1v-6.2l5.373-3.1,5.373,3.1v6.2Z" transform="translate(0 0)" fill="#fdcf37" fill-rule="evenodd"/>
    </g>
    <g id="Group_732" data-name="Group 732" transform="translate(502.426 721.98)" opacity="0.172">
      <path id="Path_181-13" data-name="Path 181" d="M7.314-135.763,0-139.986v-8.445l7.314-4.223,7.314,4.223v8.445Zm0-1.131L.98-140.552v-7.314l6.334-3.657,6.334,3.657v7.314Z" fill="#fdcf37" fill-rule="evenodd"/>
    </g>
    <g id="Group_731" data-name="Group 731" transform="translate(337.734 518.412)" opacity="0.434">
      <path id="Path_181-14" data-name="Path 181" d="M6.743-137.083,0-140.976v-7.786l6.743-3.893,6.743,3.893v7.786Zm0-1.043L.9-141.5v-6.742l5.839-3.371,5.839,3.371v6.742Z" transform="translate(0 0)" fill="#fdcf37" fill-rule="evenodd"/>
    </g>
    <g id="Group_730" data-name="Group 730" transform="translate(345.473 364.67)" opacity="0.874">
      <path id="Path_181-15" data-name="Path 181" d="M8.632-132.718,0-137.7v-9.968l8.632-4.984,8.632,4.984v9.968Zm0-1.335L1.157-138.37V-147l7.476-4.316L16.108-147v8.632Z" fill="#fdcf37" fill-rule="evenodd"/>
    </g>
    <g id="Group_729" data-name="Group 729" transform="translate(267.86 303.449)" opacity="0.539">
      <path id="Path_181-16" data-name="Path 181" d="M9.172-131.473,0-136.768v-10.591l9.172-5.3,9.172,5.3v10.591Zm0-1.419-7.943-4.586v-9.172l7.943-4.586,7.943,4.586v9.172Z" transform="translate(0 0)" fill="#fdcf37" fill-rule="evenodd"/>
    </g>
    <g id="Group_727" data-name="Group 727" transform="translate(223.129 789.705)" opacity="0.38">
      <path id="Path_181-17" data-name="Path 181" d="M4.809-141.549,0-144.325v-5.552l4.809-2.776,4.809,2.776v5.552Zm0-.744L.644-144.7v-4.809l4.164-2.4,4.164,2.4v4.809Z" fill="#fdcf37" fill-rule="evenodd"/>
    </g>
    <g id="Group_726" data-name="Group 726" transform="translate(184.531 583.489)" opacity="0.246">
      <path id="Path_181-18" data-name="Path 181" d="M4.9-141.345,0-144.172v-5.655l4.9-2.827,4.9,2.827v5.655Zm0-.758L.656-144.551v-4.9L4.9-151.9l4.241,2.449v4.9Z" fill="#fdcf37" fill-rule="evenodd"/>
    </g>
    <g id="Group_725" data-name="Group 725" transform="translate(95.165 414.856)" opacity="0.304">
      <path id="Path_181-19" data-name="Path 181" d="M5.5-139.959,0-143.132v-6.348l5.5-3.174,5.5,3.174v6.348Zm0-.85L.736-143.558v-5.5L5.5-151.8l4.761,2.749v5.5Z" fill="#fdcf37" fill-rule="evenodd"/>
    </g>
    <g id="Group_724" data-name="Group 724" transform="translate(159.54 238.7)" opacity="0.199">
      <path id="Path_181-20" data-name="Path 181" d="M6.9-136.723,0-140.706v-7.966l6.9-3.983,6.9,3.983v7.966Zm0-1.067L.924-141.239v-6.9L6.9-151.587l5.974,3.449v6.9Z" fill="#fdcf37" fill-rule="evenodd"/>
    </g>
    <g id="Group_743" data-name="Group 743" transform="translate(1098.527 71.843)" opacity="0.773">
      <path id="Path_181-21" data-name="Path 181" d="M7.406-135.55,0-139.826v-8.552l7.406-4.276,7.406,4.276v8.552Zm0-1.146L.992-140.4V-147.8l6.414-3.7,6.414,3.7v7.406Z" fill="#fdcf37" fill-rule="evenodd"/>
    </g>
    <g id="Group_738" data-name="Group 738" transform="translate(1016.952 112.059)" opacity="0.862">
      <path id="Path_181-22" data-name="Path 181" d="M8.961-131.959,0-137.133V-147.48l8.961-5.174,8.961,5.174v10.347Zm0-1.386L1.2-137.826v-8.961l7.761-4.481,7.76,4.481v8.961Z" fill="#fdcf37" fill-rule="evenodd"/>
    </g>
    <g id="Group_733" data-name="Group 733" transform="translate(748.939 96.214)" opacity="0.949">
      <path id="Path_181-23" data-name="Path 181" d="M8.48-133.071,0-137.967v-9.792l8.48-4.9,8.48,4.9v9.792Zm0-1.312-7.344-4.24v-8.48l7.344-4.24,7.344,4.24v8.48Z" fill="#fdcf37" fill-rule="evenodd"/>
    </g>
    <g id="Group_728" data-name="Group 728" transform="translate(411.203 55.855)" opacity="0.606">
      <path id="Path_181-24" data-name="Path 181" d="M8.047-134.071,0-138.717v-9.291l8.047-4.646,8.047,4.646v9.291Zm0-1.245-6.969-4.023v-8.047l6.969-4.023,6.969,4.023v8.047Z" fill="#fdcf37" fill-rule="evenodd"/>
    </g>
    <g id="Group_723" data-name="Group 723" transform="translate(113.844 120.865)" opacity="0.393">
      <path id="Path_181-25" data-name="Path 181" d="M7.752-134.752,0-139.227v-8.951l7.752-4.476,7.752,4.476v8.951Zm0-1.2-6.713-3.876v-7.752l6.713-3.876,6.713,3.876v7.752Z" fill="#fdcf37" fill-rule="evenodd"/>
    </g>
  </g>
</svg>
