<svg xmlns="http://www.w3.org/2000/svg" width="1224.223" height="781.363" viewBox="0 0 1224.223 781.363">
  <g id="Group_674" data-name="Group 674" transform="translate(0 0)">
    <g id="Group_637" data-name="Group 637" transform="translate(0 105.984)">
      <path id="Path_159" data-name="Path 159" d="M73.014,62.635,0,20.481v-84.31l73.014-42.155,73.014,42.155v84.31Zm0-11.3L9.782,14.833V-58.181L73.014-94.688l63.232,36.507V14.833Z" transform="translate(0 0)" fill="#fff" fill-rule="evenodd"/>
    </g>
    <g id="Group_667" data-name="Group 667" transform="translate(283 360.984)">
      <path id="Path_159-2" data-name="Path 159" d="M125.232,183.227,0,110.924V-33.681l125.232-72.3,125.232,72.3V110.924Zm0-19.374L16.778,101.237V-23.994L125.232-86.61,233.686-23.994V101.237Z" transform="translate(0 0)" fill="#fff" fill-rule="evenodd"/>
    </g>
    <g id="Group_673" data-name="Group 673" transform="translate(1026 207.984)">
      <path id="Path_159-3" data-name="Path 159" d="M57.5,26.8,0-6.393V-72.787l57.5-33.2,57.5,33.2V-6.393Zm0-8.9L7.7-10.841v-57.5L57.5-97.089l49.8,28.749v57.5Z" transform="translate(0 0)" fill="#fff" fill-rule="evenodd"/>
    </g>
    <g id="Group_670" data-name="Group 670" transform="translate(860 480.984)">
      <path id="Path_159-4" data-name="Path 159" d="M32.633-30.621,0-49.462V-87.143l32.633-18.841L65.266-87.143v37.681Zm0-5.048L4.372-51.986V-84.619l28.261-16.317L60.894-84.619v32.633Z" transform="translate(0 0)" fill="#fff" fill-rule="evenodd"/>
    </g>
    <g id="Group_672" data-name="Group 672" transform="translate(92 762.272)">
      <path id="Path_159-5" data-name="Path 159" d="M54.159,19.091,0-12.178V-74.715l54.159-31.269,54.159,31.269v62.537Zm0-8.378L7.256-16.367V-70.526l46.9-27.08,46.9,27.08v54.159Z" transform="translate(0 0)" fill="#fff" fill-rule="evenodd"/>
    </g>
    <g id="Group_671" data-name="Group 671" transform="translate(744 736.984)">
      <path id="Path_159-6" data-name="Path 159" d="M32.633-30.621,0-49.462V-87.143l32.633-18.841L65.266-87.143v37.681Zm0-5.048L4.372-51.986V-84.619l28.261-16.317L60.894-84.619v32.633Z" transform="translate(0 0)" fill="#fff" fill-rule="evenodd"/>
    </g>
    <g id="Group_668" data-name="Group 668" transform="translate(680.4 184.612)">
      <path id="Path_159-7" data-name="Path 159" d="M24.746-48.835,0-63.122V-91.7l24.746-14.287L49.493-91.7v28.575Zm0-3.828L3.315-65.036V-89.782l21.431-12.373L46.177-89.782v24.746Z" transform="translate(0 0)" fill="#fff" fill-rule="evenodd"/>
    </g>
    <g id="Group_669" data-name="Group 669" transform="translate(1183 811.984)">
      <path id="Path_159-8" data-name="Path 159" d="M20.612-58.383,0-70.284v-23.8l20.612-11.9,20.612,11.9v23.8Zm0-3.189L2.761-71.878V-92.489L20.612-102.8l17.85,10.306v20.612Z" transform="translate(0 0)" fill="#fff" fill-rule="evenodd"/>
    </g>
  </g>
</svg>
