<?xml version="1.0" encoding="UTF-8" standalone="no"?>
<!DOCTYPE svg PUBLIC "-//W3C//DTD SVG 1.1//EN" "http://www.w3.org/Graphics/SVG/1.1/DTD/svg11.dtd">
<svg width="100%" height="100%" viewBox="0 0 744 868" version="1.1" xmlns="http://www.w3.org/2000/svg" xmlns:xlink="http://www.w3.org/1999/xlink" xml:space="preserve" xmlns:serif="http://www.serif.com/" style="fill-rule:evenodd;clip-rule:evenodd;stroke-linejoin:round;stroke-miterlimit:2;">
    <path d="M288.679,218.697l-26.264,-15.164l0,-30.326l26.264,-15.164l26.264,15.164l0,30.326l-26.264,15.164Zm0,-4.063l-22.745,-13.132l0,-26.264l22.745,-13.132l22.745,13.132l0,26.264l-22.745,13.132Z" style="fill:#fdcf37;fill-opacity:0.19;"/>
    <path d="M137.895,135.269l-58.574,-33.817l0,-67.635l58.574,-33.817l58.573,33.817l0,67.635l-58.573,33.817Zm0,-9.061l-50.726,-29.287l0,-58.573l50.726,-29.287l50.725,29.287l0,58.573l-50.725,29.287Z" style="fill:#fdcf37;fill-opacity:0.06;"/>
    <path d="M43.584,253.256l-43.584,-25.163l0,-50.327l43.584,-25.163l43.585,25.163l0,50.327l-43.585,25.163Zm0,-6.742l-37.745,-21.793l0,-43.584l37.745,-21.792l37.745,21.792l0,43.584l-37.745,21.793Z" style="fill:#fdcf37;fill-opacity:0.45;"/>
    <path d="M498.394,647.257l26.263,15.164l0,30.327l-26.263,15.163l-26.264,-15.163l0,-30.327l26.264,-15.164Zm0,4.064l22.745,13.131l0,26.264l-22.745,13.132l-22.745,-13.132l0,-26.264l22.745,-13.131Z" style="fill:#fdcf37;fill-opacity:0.19;"/>
    <path d="M605.178,731.987l58.573,33.817l0,67.635l-58.573,33.817l-58.573,-33.817l0,-67.635l58.573,-33.817Zm0,9.061l50.726,29.287l0,58.573l-50.726,29.287l-50.726,-29.287l0,-58.573l50.726,-29.287Z" style="fill:#fdcf37;fill-opacity:0.22;"/>
    <path d="M699.488,550.667l43.585,25.163l0,50.327l-43.585,25.164l-43.584,-25.164l0,-50.327l43.584,-25.163Zm0,6.742l37.745,21.793l0,43.584l-37.745,21.792l-37.745,-21.792l0,-43.584l37.745,-21.793Z" style="fill:#fdcf37;fill-opacity:0.45;"/>
    <path d="M604.069,404.774l-82.062,-41.03l82.062,-41.033c14.679,-7.337 14.694,-28.359 0,-35.708l-235.54,-117.77c-5.622,-2.807 -12.234,-2.807 -17.856,0l-235.54,117.77c-14.678,7.342 -14.694,28.363 0,35.708l82.063,41.033l-82.063,41.03c-14.678,7.341 -14.694,28.358 0,35.707l82.063,41.033l-82.063,41.03c-14.678,7.341 -14.694,28.358 0,35.707l235.54,117.77c5.611,2.803 12.223,2.815 17.856,0l235.54,-117.77c14.679,-7.341 14.694,-28.358 0,-35.707l-82.062,-41.03l82.062,-41.033c14.679,-7.337 14.694,-28.359 0,-35.707Zm-244.468,-195.369l190.905,95.454l-190.905,95.451l-190.904,-95.451l190.904,-95.454Zm190.905,330.994l-190.905,95.451l-190.904,-95.451l73.134,-36.569l108.842,54.421c5.614,2.803 12.223,2.815 17.856,0l108.842,-54.421l73.135,36.569Zm-190.905,-22.319l-190.904,-95.451l73.134,-36.569l108.842,54.421c5.614,2.803 12.223,2.815 17.856,0l108.842,-54.421l73.135,36.569l-190.905,95.451Z" style="fill:#fdcf37;fill-rule:nonzero;"/>
</svg>
