<?xml version="1.0" encoding="UTF-8" standalone="no"?>
<!DOCTYPE svg PUBLIC "-//W3C//DTD SVG 1.1//EN" "http://www.w3.org/Graphics/SVG/1.1/DTD/svg11.dtd">
<svg width="100%" height="100%" viewBox="0 0 800 800" version="1.1" xmlns="http://www.w3.org/2000/svg" xmlns:xlink="http://www.w3.org/1999/xlink" xml:space="preserve" xmlns:serif="http://www.serif.com/" style="fill-rule:evenodd;clip-rule:evenodd;stroke-linejoin:round;stroke-miterlimit:2;">
    <g transform="matrix(1,0,0,1,-8501.82,-4284.14)">
        <g transform="matrix(0.740741,0,0,0.972053,2204.78,119.862)">
            <rect x="8501" y="4284" width="1080" height="823" style="fill:#0f171f;"/>
        </g>
        <g transform="matrix(2.5122,0,0,2.5122,-11193.4,-6207.01)">
            <g transform="matrix(1,0,0,1,-2295.28,-1067.98)">
                <g transform="matrix(1,0,0,1,10168.3,5396.59)">
                    <g transform="matrix(96,0,0,96,0,0)">
                        <path d="M0.42,-0.189c0,-0.025 -0.008,-0.045 -0.026,-0.059c-0.018,-0.014 -0.049,-0.028 -0.094,-0.043c-0.044,-0.015 -0.081,-0.029 -0.109,-0.043c-0.092,-0.046 -0.138,-0.108 -0.138,-0.187c0,-0.039 0.011,-0.074 0.034,-0.104c0.023,-0.03 0.056,-0.054 0.098,-0.071c0.042,-0.016 0.089,-0.025 0.141,-0.025c0.051,0 0.097,0.009 0.138,0.028c0.04,0.018 0.072,0.044 0.094,0.078c0.023,0.033 0.034,0.072 0.034,0.115l-0.171,0c0,-0.029 -0.009,-0.051 -0.027,-0.067c-0.017,-0.016 -0.041,-0.024 -0.072,-0.024c-0.03,0 -0.055,0.006 -0.072,0.02c-0.018,0.013 -0.027,0.031 -0.027,0.051c0,0.019 0.01,0.035 0.029,0.05c0.02,0.015 0.054,0.03 0.103,0.046c0.05,0.016 0.09,0.033 0.122,0.051c0.076,0.044 0.115,0.105 0.115,0.183c0,0.062 -0.024,0.111 -0.071,0.147c-0.046,0.035 -0.111,0.053 -0.192,0.053c-0.058,0 -0.11,-0.011 -0.157,-0.031c-0.047,-0.021 -0.082,-0.049 -0.105,-0.085c-0.024,-0.036 -0.036,-0.078 -0.036,-0.124l0.172,0c0,0.038 0.01,0.066 0.03,0.084c0.019,0.018 0.051,0.027 0.096,0.027c0.028,0 0.05,-0.006 0.067,-0.018c0.016,-0.013 0.024,-0.03 0.024,-0.052Z" style="fill:#fff;fill-rule:nonzero;"/>
                    </g>
                    <g transform="matrix(96,0,0,96,60.0938,0)">
                        <path d="M0.207,-0.472c0.035,-0.044 0.08,-0.066 0.135,-0.066c0.058,0 0.102,0.017 0.132,0.052c0.029,0.034 0.044,0.085 0.045,0.153l0,0.333l-0.165,0l0,-0.33c0,-0.028 -0.006,-0.048 -0.017,-0.061c-0.011,-0.014 -0.031,-0.02 -0.058,-0.02c-0.034,0 -0.058,0.011 -0.072,0.032l0,0.379l-0.165,0l0,-0.75l0.165,0l0,0.278Z" style="fill:#fff;fill-rule:nonzero;"/>
                    </g>
                    <g transform="matrix(96,0,0,96,114.281,0)">
                        <path d="M0.344,0c-0.006,-0.011 -0.011,-0.027 -0.016,-0.047c-0.03,0.038 -0.072,0.057 -0.127,0.057c-0.05,0 -0.092,-0.015 -0.127,-0.045c-0.035,-0.031 -0.052,-0.068 -0.052,-0.114c0,-0.057 0.021,-0.101 0.063,-0.13c0.043,-0.029 0.104,-0.044 0.185,-0.044l0.051,0l0,-0.028c0,-0.048 -0.021,-0.072 -0.063,-0.072c-0.039,0 -0.059,0.019 -0.059,0.057l-0.164,0c0,-0.051 0.021,-0.092 0.065,-0.124c0.043,-0.032 0.099,-0.048 0.166,-0.048c0.067,0 0.121,0.016 0.16,0.049c0.039,0.033 0.059,0.078 0.06,0.135l0,0.234c0,0.049 0.008,0.086 0.022,0.112l0,0.008l-0.164,0Zm-0.103,-0.107c0.02,0 0.037,-0.005 0.051,-0.014c0.013,-0.008 0.023,-0.018 0.029,-0.029l0,-0.085l-0.048,0c-0.057,0 -0.086,0.026 -0.086,0.077c0,0.015 0.005,0.027 0.015,0.037c0.01,0.009 0.023,0.014 0.039,0.014Z" style="fill:#fff;fill-rule:nonzero;"/>
                    </g>
                    <g transform="matrix(96,0,0,96,165.234,0)">
                        <path d="M0.366,-0.379l-0.054,-0.004c-0.052,0 -0.085,0.016 -0.1,0.049l0,0.334l-0.165,0l0,-0.528l0.155,0l0.005,0.068c0.028,-0.052 0.066,-0.078 0.116,-0.078c0.017,0 0.033,0.002 0.046,0.006l-0.003,0.153Z" style="fill:#fff;fill-rule:nonzero;"/>
                    </g>
                </g>
                <g transform="matrix(1,0,0,1,10368.5,5396.59)">
                    <g transform="matrix(96,0,0,96,0,0)">
                        <path d="M0.344,0c-0.006,-0.011 -0.011,-0.027 -0.016,-0.047c-0.03,0.038 -0.072,0.057 -0.127,0.057c-0.05,0 -0.092,-0.015 -0.127,-0.045c-0.035,-0.031 -0.052,-0.068 -0.052,-0.114c0,-0.057 0.021,-0.101 0.063,-0.13c0.043,-0.029 0.104,-0.044 0.185,-0.044l0.051,0l0,-0.028c0,-0.048 -0.021,-0.072 -0.063,-0.072c-0.039,0 -0.059,0.019 -0.059,0.057l-0.164,0c0,-0.051 0.021,-0.092 0.065,-0.124c0.043,-0.032 0.099,-0.048 0.166,-0.048c0.067,0 0.121,0.016 0.16,0.049c0.039,0.033 0.059,0.078 0.06,0.135l0,0.234c0,0.049 0.008,0.086 0.022,0.112l0,0.008l-0.164,0Zm-0.103,-0.107c0.02,0 0.037,-0.005 0.051,-0.014c0.013,-0.008 0.023,-0.018 0.029,-0.029l0,-0.085l-0.048,0c-0.057,0 -0.086,0.026 -0.086,0.077c0,0.015 0.005,0.027 0.015,0.037c0.01,0.009 0.023,0.014 0.039,0.014Z" style="fill:#fff;fill-rule:nonzero;"/>
                    </g>
                </g>
            </g>
            <g transform="matrix(1,0,0,1,7870.86,4414.02)">
                <g transform="matrix(96,0,0,96,0,0)">
                    <path d="M0.054,0l0,-0.711l0.255,0c0.092,0 0.161,0.017 0.209,0.05c0.048,0.034 0.071,0.083 0.071,0.146c0,0.037 -0.008,0.069 -0.025,0.095c-0.017,0.026 -0.042,0.045 -0.075,0.057c0.037,0.01 0.066,0.028 0.086,0.055c0.02,0.027 0.029,0.059 0.029,0.098c0,0.069 -0.022,0.122 -0.066,0.157c-0.044,0.035 -0.109,0.052 -0.196,0.053l-0.288,0Zm0.171,-0.302l0,0.17l0.112,0c0.031,0 0.055,-0.007 0.072,-0.021c0.016,-0.014 0.025,-0.034 0.025,-0.06c0,-0.059 -0.03,-0.089 -0.089,-0.089l-0.12,0Zm0,-0.113l0.089,0c0.038,0 0.065,-0.007 0.081,-0.02c0.015,-0.013 0.023,-0.033 0.023,-0.059c0,-0.03 -0.008,-0.052 -0.025,-0.065c-0.018,-0.013 -0.046,-0.02 -0.084,-0.02l-0.084,0l0,0.164Z" style="fill:#fff;fill-rule:nonzero;"/>
                </g>
                <g transform="matrix(96,0,0,96,61.9219,0)">
                    <path d="M0.22,0l-0.165,0l0,-0.528l0.165,0l0,0.528Zm-0.175,-0.665c0,-0.023 0.008,-0.042 0.025,-0.057c0.017,-0.015 0.039,-0.023 0.066,-0.023c0.027,0 0.049,0.008 0.066,0.023c0.017,0.015 0.026,0.034 0.026,0.057c0,0.024 -0.009,0.043 -0.026,0.058c-0.017,0.015 -0.039,0.023 -0.066,0.023c-0.027,0 -0.049,-0.008 -0.066,-0.023c-0.017,-0.015 -0.025,-0.034 -0.025,-0.058Z" style="fill:#fff;fill-rule:nonzero;"/>
                </g>
                <g transform="matrix(96,0,0,96,88.3125,0)">
                    <path d="M0.24,-0.127l0.241,0l0,0.127l-0.449,0l0,-0.092l0.235,-0.309l-0.225,0l0,-0.127l0.434,0l0,0.089l-0.236,0.312Z" style="fill:#fff;fill-rule:nonzero;"/>
                </g>
            </g>
        </g>
    </g>
</svg>
